<mxfile host="app.diagrams.net" agent="Mozilla/5.0 (Windows NT 10.0; Win64; x64) AppleWebKit/537.36 (KHTML, like Gecko) Chrome/130.0.0.0 Safari/537.36" version="24.8.2">
  <diagram name="Page-1" id="6AQiWtXC1i7Dj9kjHFDt">
    <mxGraphModel dx="1918" dy="975" grid="0" gridSize="10" guides="1" tooltips="1" connect="1" arrows="1" fold="1" page="0" pageScale="1" pageWidth="3300" pageHeight="4681" math="0" shadow="0">
      <root>
        <mxCell id="0" />
        <mxCell id="1" parent="0" />
        <mxCell id="ThAz6LVnvCTda6eeC0oc-46" value="" style="rounded=0;whiteSpace=wrap;html=1;" vertex="1" parent="1">
          <mxGeometry x="-137" y="77" width="914" height="678" as="geometry" />
        </mxCell>
        <mxCell id="ThAz6LVnvCTda6eeC0oc-47" value="&lt;font style=&quot;font-size: 16px;&quot;&gt;&amp;lt;&amp;lt;Device&amp;gt;&amp;gt;&lt;/font&gt;&lt;div style=&quot;font-size: 16px;&quot;&gt;&lt;br&gt;&lt;/div&gt;&lt;div&gt;: &lt;b&gt;&lt;font style=&quot;font-size: 15px;&quot;&gt;WebServer&lt;/font&gt;&lt;/b&gt;&lt;/div&gt;" style="verticalAlign=top;align=center;shape=cube;size=10;direction=south;fontStyle=0;html=1;boundedLbl=1;spacingLeft=5;whiteSpace=wrap;" vertex="1" parent="1">
          <mxGeometry x="41" y="421" width="297" height="250" as="geometry" />
        </mxCell>
        <mxCell id="ThAz6LVnvCTda6eeC0oc-48" value="&lt;font style=&quot;font-size: 16px;&quot;&gt;&amp;lt;&amp;lt;Device&amp;gt;&amp;gt;&lt;/font&gt;&lt;div style=&quot;font-size: 16px;&quot;&gt;&lt;br&gt;&lt;/div&gt;&lt;div&gt;&lt;b&gt;&lt;font style=&quot;font-size: 15px;&quot;&gt;: DataBase Server&lt;/font&gt;&lt;/b&gt;&lt;/div&gt;" style="verticalAlign=top;align=center;shape=cube;size=10;direction=south;fontStyle=0;html=1;boundedLbl=1;spacingLeft=5;whiteSpace=wrap;" vertex="1" parent="1">
          <mxGeometry x="463" y="509" width="197" height="162" as="geometry" />
        </mxCell>
        <mxCell id="ThAz6LVnvCTda6eeC0oc-49" value="&lt;font style=&quot;font-size: 16px;&quot;&gt;&amp;nbsp;&amp;lt;&amp;lt; Device &amp;gt;&amp;gt;&lt;/font&gt;&lt;div style=&quot;font-size: 16px;&quot;&gt;&lt;br&gt;&lt;/div&gt;&lt;div&gt;&lt;b&gt;&lt;font style=&quot;font-size: 16px;&quot;&gt;: UserClient&lt;/font&gt;&lt;/b&gt;&lt;/div&gt;" style="verticalAlign=top;align=center;shape=cube;size=10;direction=south;fontStyle=0;html=1;boundedLbl=1;spacingLeft=5;whiteSpace=wrap;" vertex="1" parent="1">
          <mxGeometry x="446" y="162" width="238" height="252" as="geometry" />
        </mxCell>
        <mxCell id="ThAz6LVnvCTda6eeC0oc-50" value="&lt;b&gt;&lt;font style=&quot;font-size: 16px;&quot;&gt;USER&lt;/font&gt;&lt;/b&gt;" style="shape=umlActor;verticalLabelPosition=bottom;verticalAlign=top;html=1;" vertex="1" parent="1">
          <mxGeometry x="-16" y="207" width="30" height="60" as="geometry" />
        </mxCell>
        <mxCell id="ThAz6LVnvCTda6eeC0oc-51" value="User Interface&lt;div&gt;&lt;br&gt;&lt;/div&gt;&lt;div&gt;&lt;b&gt;&lt;font style=&quot;font-size: 15px;&quot;&gt;(WEB/PC)&lt;/font&gt;&lt;/b&gt;&lt;/div&gt;" style="html=1;align=center;verticalAlign=middle;dashed=0;whiteSpace=wrap;" vertex="1" parent="1">
          <mxGeometry x="129" y="203" width="160" height="70" as="geometry" />
        </mxCell>
        <mxCell id="ThAz6LVnvCTda6eeC0oc-52" value="&amp;lt;&amp;lt;Device&amp;gt;&amp;gt;&lt;div&gt;&lt;br&gt;&lt;/div&gt;&lt;div&gt;: &lt;b&gt;&lt;font style=&quot;font-size: 15px;&quot;&gt;Browser&lt;/font&gt;&lt;/b&gt;&lt;/div&gt;" style="verticalAlign=top;align=center;shape=cube;size=10;direction=south;fontStyle=0;html=1;boundedLbl=1;spacingLeft=5;whiteSpace=wrap;" vertex="1" parent="1">
          <mxGeometry x="470" y="246" width="172" height="143" as="geometry" />
        </mxCell>
        <mxCell id="ThAz6LVnvCTda6eeC0oc-53" value="App Reacjs" style="shape=module;align=left;spacingLeft=20;align=center;verticalAlign=top;whiteSpace=wrap;html=1;" vertex="1" parent="1">
          <mxGeometry x="502" y="320" width="100" height="50" as="geometry" />
        </mxCell>
        <mxCell id="ThAz6LVnvCTda6eeC0oc-54" value="&lt;div style=&quot;font-size: 16px;&quot;&gt;&lt;font style=&quot;font-size: 16px;&quot;&gt;&lt;br&gt;&lt;/font&gt;&lt;/div&gt;&lt;font style=&quot;font-size: 16px;&quot;&gt;Views&lt;/font&gt;" style="shape=module;align=left;spacingLeft=20;align=center;verticalAlign=top;whiteSpace=wrap;html=1;" vertex="1" parent="1">
          <mxGeometry x="194" y="513" width="100" height="50" as="geometry" />
        </mxCell>
        <mxCell id="ThAz6LVnvCTda6eeC0oc-55" value="&lt;div&gt;&lt;br&gt;&lt;/div&gt;&lt;font style=&quot;font-size: 16px;&quot;&gt;Serializers&lt;/font&gt;" style="shape=module;align=left;spacingLeft=20;align=center;verticalAlign=top;whiteSpace=wrap;html=1;" vertex="1" parent="1">
          <mxGeometry x="57" y="513" width="100" height="50" as="geometry" />
        </mxCell>
        <mxCell id="ThAz6LVnvCTda6eeC0oc-56" value="&lt;div&gt;&lt;br&gt;&lt;/div&gt;&lt;font style=&quot;font-size: 16px;&quot;&gt;Models&lt;/font&gt;" style="shape=module;align=left;spacingLeft=20;align=center;verticalAlign=top;whiteSpace=wrap;html=1;" vertex="1" parent="1">
          <mxGeometry x="194" y="603" width="100" height="50" as="geometry" />
        </mxCell>
        <mxCell id="ThAz6LVnvCTda6eeC0oc-57" value="" style="endArrow=block;startArrow=block;endFill=1;startFill=1;html=1;rounded=0;fontSize=12;startSize=8;endSize=8;curved=1;exitX=1;exitY=0.5;exitDx=0;exitDy=0;entryX=0.07;entryY=0.508;entryDx=0;entryDy=0;entryPerimeter=0;" edge="1" parent="1" source="ThAz6LVnvCTda6eeC0oc-55" target="ThAz6LVnvCTda6eeC0oc-54">
          <mxGeometry width="160" relative="1" as="geometry">
            <mxPoint x="245" y="535" as="sourcePoint" />
            <mxPoint x="405" y="535" as="targetPoint" />
          </mxGeometry>
        </mxCell>
        <mxCell id="ThAz6LVnvCTda6eeC0oc-58" value="" style="endArrow=block;startArrow=block;endFill=1;startFill=1;html=1;rounded=0;fontSize=12;startSize=8;endSize=8;curved=1;exitX=0.5;exitY=0;exitDx=0;exitDy=0;" edge="1" parent="1" source="ThAz6LVnvCTda6eeC0oc-56" target="ThAz6LVnvCTda6eeC0oc-54">
          <mxGeometry width="160" relative="1" as="geometry">
            <mxPoint x="245" y="535" as="sourcePoint" />
            <mxPoint x="405" y="535" as="targetPoint" />
          </mxGeometry>
        </mxCell>
        <mxCell id="ThAz6LVnvCTda6eeC0oc-59" value="&lt;div&gt;&lt;br&gt;&lt;/div&gt;&lt;font style=&quot;font-size: 16px;&quot;&gt;PosgresSQL&lt;/font&gt;" style="shape=module;align=left;spacingLeft=20;align=center;verticalAlign=top;whiteSpace=wrap;html=1;" vertex="1" parent="1">
          <mxGeometry x="484" y="601" width="139" height="50" as="geometry" />
        </mxCell>
        <mxCell id="ThAz6LVnvCTda6eeC0oc-60" value="" style="endArrow=block;startArrow=block;endFill=1;startFill=1;html=1;rounded=0;fontSize=12;startSize=8;endSize=8;curved=1;exitX=1;exitY=0.5;exitDx=0;exitDy=0;entryX=0.122;entryY=0.556;entryDx=0;entryDy=0;entryPerimeter=0;" edge="1" parent="1" source="ThAz6LVnvCTda6eeC0oc-56" target="ThAz6LVnvCTda6eeC0oc-59">
          <mxGeometry width="160" relative="1" as="geometry">
            <mxPoint x="317" y="597" as="sourcePoint" />
            <mxPoint x="477" y="597" as="targetPoint" />
          </mxGeometry>
        </mxCell>
        <mxCell id="ThAz6LVnvCTda6eeC0oc-61" value="&lt;font style=&quot;font-size: 15px;&quot;&gt;SQL Request&lt;/font&gt;" style="edgeLabel;html=1;align=center;verticalAlign=middle;resizable=0;points=[];fontSize=12;" vertex="1" connectable="0" parent="ThAz6LVnvCTda6eeC0oc-60">
          <mxGeometry x="-0.0702" y="-1" relative="1" as="geometry">
            <mxPoint as="offset" />
          </mxGeometry>
        </mxCell>
        <mxCell id="ThAz6LVnvCTda6eeC0oc-62" value="" style="endArrow=block;endFill=1;html=1;edgeStyle=orthogonalEdgeStyle;align=left;verticalAlign=top;rounded=0;fontSize=12;startSize=8;endSize=8;curved=1;" edge="1" parent="1">
          <mxGeometry x="-1" relative="1" as="geometry">
            <mxPoint x="103" y="629" as="sourcePoint" />
            <mxPoint x="103" y="562" as="targetPoint" />
          </mxGeometry>
        </mxCell>
        <mxCell id="ThAz6LVnvCTda6eeC0oc-63" value="" style="endArrow=block;endFill=1;html=1;edgeStyle=orthogonalEdgeStyle;align=left;verticalAlign=top;rounded=0;fontSize=12;startSize=8;endSize=8;curved=1;entryX=0.094;entryY=0.492;entryDx=0;entryDy=0;entryPerimeter=0;" edge="1" parent="1" target="ThAz6LVnvCTda6eeC0oc-56">
          <mxGeometry x="-1" relative="1" as="geometry">
            <mxPoint x="104" y="628" as="sourcePoint" />
            <mxPoint x="194" y="651" as="targetPoint" />
          </mxGeometry>
        </mxCell>
        <mxCell id="ThAz6LVnvCTda6eeC0oc-64" value="" style="endArrow=block;endFill=1;html=1;edgeStyle=orthogonalEdgeStyle;align=left;verticalAlign=top;rounded=0;fontSize=12;startSize=8;endSize=8;curved=1;entryX=0.16;entryY=0.49;entryDx=0;entryDy=0;entryPerimeter=0;" edge="1" parent="1" target="ThAz6LVnvCTda6eeC0oc-53">
          <mxGeometry x="-1" relative="1" as="geometry">
            <mxPoint x="242" y="345" as="sourcePoint" />
            <mxPoint x="493" y="344.5" as="targetPoint" />
          </mxGeometry>
        </mxCell>
        <mxCell id="ThAz6LVnvCTda6eeC0oc-65" value="&lt;b&gt;&lt;font style=&quot;font-size: 15px;&quot;&gt;HTTP/HTTPS&lt;/font&gt;&lt;/b&gt;" style="edgeLabel;html=1;align=center;verticalAlign=middle;resizable=0;points=[];fontSize=12;" vertex="1" connectable="0" parent="ThAz6LVnvCTda6eeC0oc-64">
          <mxGeometry x="-0.9856" y="1" relative="1" as="geometry">
            <mxPoint as="offset" />
          </mxGeometry>
        </mxCell>
        <mxCell id="ThAz6LVnvCTda6eeC0oc-66" value="" style="endArrow=block;endFill=1;html=1;edgeStyle=orthogonalEdgeStyle;align=left;verticalAlign=top;rounded=0;fontSize=12;startSize=8;endSize=8;curved=1;entryX=0.5;entryY=0;entryDx=0;entryDy=0;" edge="1" parent="1" target="ThAz6LVnvCTda6eeC0oc-54">
          <mxGeometry x="-1" relative="1" as="geometry">
            <mxPoint x="244" y="347" as="sourcePoint" />
            <mxPoint x="359" y="354" as="targetPoint" />
          </mxGeometry>
        </mxCell>
        <mxCell id="ThAz6LVnvCTda6eeC0oc-67" value="" style="endArrow=block;startArrow=block;endFill=1;startFill=1;html=1;rounded=0;fontSize=12;startSize=8;endSize=8;curved=1;exitX=1;exitY=0.5;exitDx=0;exitDy=0;entryX=0.308;entryY=0.997;entryDx=0;entryDy=0;entryPerimeter=0;" edge="1" parent="1" source="ThAz6LVnvCTda6eeC0oc-51" target="ThAz6LVnvCTda6eeC0oc-49">
          <mxGeometry width="160" relative="1" as="geometry">
            <mxPoint x="265" y="307" as="sourcePoint" />
            <mxPoint x="425" y="307" as="targetPoint" />
          </mxGeometry>
        </mxCell>
        <mxCell id="ThAz6LVnvCTda6eeC0oc-68" value="" style="endArrow=block;startArrow=block;endFill=1;startFill=1;html=1;rounded=0;fontSize=12;startSize=8;endSize=8;curved=1;exitX=0.5;exitY=0.5;exitDx=0;exitDy=0;exitPerimeter=0;entryX=0;entryY=0.5;entryDx=0;entryDy=0;" edge="1" parent="1" source="ThAz6LVnvCTda6eeC0oc-50" target="ThAz6LVnvCTda6eeC0oc-51">
          <mxGeometry width="160" relative="1" as="geometry">
            <mxPoint x="9" y="307" as="sourcePoint" />
            <mxPoint x="169" y="307" as="targetPoint" />
          </mxGeometry>
        </mxCell>
        <mxCell id="ThAz6LVnvCTda6eeC0oc-69" value="Diagramme de déploiement" style="shape=umlFrame;whiteSpace=wrap;html=1;pointerEvents=0;recursiveResize=0;container=1;collapsible=0;width=194;height=39;" vertex="1" parent="1">
          <mxGeometry x="-92" y="120" width="817" height="585" as="geometry" />
        </mxCell>
      </root>
    </mxGraphModel>
  </diagram>
</mxfile>
